<svg width="78" height="79" viewBox="0 0 78 79" fill="none" xmlns="http://www.w3.org/2000/svg">
<rect x="28.7407" y="25.0771" width="15.5556" height="41.4815" stroke="black"/>
<rect x="44.2961" y="40.6328" width="16.8519" height="25.9259" stroke="black"/>
<rect x="20.9629" y="38.04" width="7.77778" height="28.5185" stroke="black"/>
<path d="M31.9814 30.2625H41.0555" stroke="black"/>
<path d="M31.9814 35.4475H41.0555" stroke="black"/>
<path d="M31.9814 40.6328H41.0555" stroke="black"/>
<path d="M23.5554 41.929H26.148" stroke="black"/>
<path d="M31.9814 45.8179H41.0555" stroke="black"/>
<path d="M23.5554 47.1143H26.148" stroke="black"/>
<path d="M48.1851 45.8179H57.2591" stroke="black"/>
<path d="M31.9814 51.0032H41.0555" stroke="black"/>
<path d="M23.5554 52.2993H26.148" stroke="black"/>
<path d="M48.1851 51.0032H57.2591" stroke="black"/>
<path d="M31.9814 56.1882H41.0555" stroke="black"/>
<path d="M23.5554 57.4846H26.148" stroke="black"/>
<path d="M48.1851 56.1882H57.2591" stroke="black"/>
<path d="M31.9814 61.3735H41.0555" stroke="black"/>
<path d="M23.5554 62.6697H26.148" stroke="black"/>
<path d="M48.1851 61.3735H57.2591" stroke="black"/>
<path fill-rule="evenodd" clip-rule="evenodd" d="M58.3331 27.006V23.7808H63.9768V26.9928C65.1135 27.3467 66.156 27.9349 67.1035 28.7579L69.9183 27.0987L72.8148 31.8504L69.9861 33.5092C70.0582 33.8191 70.1124 34.1419 70.1487 34.4781C70.1665 34.6818 70.1802 34.8855 70.1892 35.0887C70.1892 35.204 70.1892 35.323 70.1892 35.4474C70.1892 36.1283 70.1214 36.7835 69.9861 37.4119L72.8148 39.0573L69.9183 43.8093L67.0762 42.1499C66.1376 42.9552 65.1048 43.539 63.9768 43.902V47.1141H58.3331V43.902C57.7016 43.6983 57.0968 43.4238 56.5194 43.079C56.348 42.9729 56.1763 42.8624 56.0052 42.7471C55.7436 42.5611 55.4863 42.3622 55.2334 42.1499L52.3779 43.8093L49.4814 39.0573L52.3235 37.398C52.1882 36.7787 52.1207 36.1283 52.1207 35.4474C52.1207 34.7746 52.1882 34.129 52.3235 33.5092L49.4814 31.8504L52.3779 27.0987L55.2201 28.7579C56.1586 27.944 57.1961 27.3598 58.3331 27.006ZM59.8353 31.4654C59.285 31.6338 58.7842 31.9126 58.3331 32.3018C58.2609 32.3635 58.1931 32.4251 58.13 32.4873C57.4894 33.1157 57.0968 33.8502 56.9525 34.6909C56.9074 34.9381 56.885 35.1906 56.885 35.4474C56.885 35.5622 56.8893 35.6726 56.8984 35.7788C56.9074 35.9294 56.9254 36.0801 56.9525 36.2302C56.9615 36.2742 56.9705 36.323 56.9796 36.376C57.1419 37.1374 57.5255 37.814 58.13 38.407C58.1931 38.4692 58.2609 38.5308 58.3331 38.5925C58.7932 38.9909 59.2984 39.2745 59.8487 39.4423C60.2547 39.5661 60.688 39.6283 61.1481 39.6283C61.2115 39.6283 61.2791 39.6283 61.3512 39.6283C61.7301 39.6106 62.0957 39.5485 62.4475 39.4423C63.0069 39.2745 63.5167 38.9909 63.9768 38.5925C64.04 38.5308 64.1031 38.4692 64.1663 38.407C64.4279 38.1507 64.6491 37.8762 64.8295 37.584C65.0911 37.1685 65.2625 36.7127 65.344 36.2173C65.3888 35.9691 65.4115 35.7128 65.4115 35.4474C65.4115 35.1815 65.3932 34.9295 65.3574 34.6909C65.204 33.8502 64.8071 33.1157 64.1663 32.4873C64.1031 32.4251 64.04 32.3683 63.9768 32.3147C63.9678 32.3061 63.9588 32.2975 63.9498 32.2884C63.7964 32.1555 63.6427 32.0364 63.4896 31.9297C63.1646 31.7265 62.8264 31.5716 62.4746 31.4654C62.0596 31.3325 61.6175 31.2665 61.1481 31.2665C60.679 31.2665 60.2413 31.3325 59.8353 31.4654Z" fill="url(#paint0_linear_1_1197)"/>
<defs>
<linearGradient id="paint0_linear_1_1197" x1="49.4814" y1="35.4474" x2="72.7931" y2="35.4474" gradientUnits="userSpaceOnUse">
<stop stop-color="#16FF00"/>
<stop offset="1" stop-color="#4DFFC9"/>
<stop offset="1" stop-color="#4DFFC9"/>
</linearGradient>
</defs>
</svg>
