<svg width="70" height="70" viewBox="0 0 70 70" fill="none" xmlns="http://www.w3.org/2000/svg">
<path d="M43.3837 26.0913C45.9518 26.0883 48.4395 25.195 50.4229 23.5635C52.4063 21.9321 53.7627 19.6634 54.2609 17.1441C54.7592 14.6247 54.3686 12.0105 53.1556 9.74686C51.9426 7.4832 49.9823 5.71013 47.6087 4.72971C45.235 3.74929 42.5949 3.62217 40.138 4.37002C37.6811 5.11787 35.5595 6.69441 34.1347 8.83106C32.7098 10.9677 32.0699 13.5323 32.3238 16.0879C32.5778 18.6434 33.7099 21.0319 35.5274 22.8464C36.5567 23.8806 37.7813 24.7001 39.1299 25.2571C40.4786 25.8142 41.9245 26.0977 43.3837 26.0913Z" fill="url(#paint0_linear_1_1472)"/>
<path d="M31.1478 21.5094C31.1517 22.3253 31.3414 23.1438 31.6549 23.9148C31.986 24.7291 32.4444 25.4887 33.0421 26.1122C33.5549 26.6472 34.2344 27.0813 34.8996 27.1574C35.6429 27.2424 36.2918 26.9599 36.9005 26.4811C37.5249 25.9901 38.0346 25.2469 38.4116 24.5091C38.7896 23.7695 39.0709 22.889 39.1586 22.0943C39.3512 20.3484 38.5708 18.6697 37.1108 17.8055C35.8698 17.071 34.3133 17.1259 33.096 17.8855C31.8883 18.6392 31.1562 20.0409 31.1478 21.5094C31.1447 22.0577 30.3358 22.058 30.3389 21.5094C30.3498 19.6059 31.3783 17.8303 32.9992 16.9716C34.661 16.0913 36.6868 16.3204 38.1497 17.5165C38.8506 18.0896 39.3668 18.8562 39.69 19.722C40.0159 20.5954 40.0525 21.5391 39.9213 22.4577C39.7926 23.3597 39.4748 24.2372 39.0602 25.0351C38.6506 25.8235 38.1041 26.5633 37.4287 27.1185C36.7761 27.655 36.0082 28.0148 35.1692 28.0223C34.336 28.0297 33.5545 27.6486 32.9097 27.1185C31.5691 26.0165 30.6809 24.2082 30.4171 22.4577C30.3697 22.1438 30.3404 21.8274 30.3389 21.5094C30.3363 20.9607 31.1453 20.961 31.1478 21.5094Z" fill="black"/>
<path d="M31.1478 21.5094C31.1517 22.3253 31.3414 23.1438 31.6549 23.9148C31.986 24.7291 32.4444 25.4887 33.0421 26.1122C33.5549 26.6472 34.2344 27.0813 34.8996 27.1574C35.6429 27.2424 36.2918 26.9599 36.9005 26.4811C37.5249 25.9901 38.0346 25.2469 38.4116 24.5091C38.7896 23.7695 39.0709 22.889 39.1586 22.0943C39.3512 20.3484 38.5708 18.6697 37.1108 17.8055C35.8698 17.071 34.3133 17.1259 33.096 17.8855C31.8883 18.6392 31.1562 20.0409 31.1478 21.5094ZM31.1478 21.5094C31.1447 22.0577 30.3358 22.058 30.3389 21.5094C30.3498 19.6059 31.3783 17.8303 32.9992 16.9716C34.661 16.0913 36.6868 16.3204 38.1497 17.5165C38.8506 18.0896 39.3668 18.8562 39.69 19.722C40.0159 20.5954 40.0525 21.5391 39.9213 22.4577C39.7926 23.3597 39.4748 24.2372 39.0602 25.0351C38.6506 25.8235 38.1041 26.5633 37.4287 27.1185C36.7761 27.655 36.0082 28.0148 35.1692 28.0223C34.336 28.0297 33.5545 27.6486 32.9097 27.1185C31.5691 26.0165 30.6809 24.2082 30.4171 22.4577C30.3697 22.1438 30.3404 21.8274 30.3389 21.5094C30.3363 20.9607 31.1453 20.961 31.1478 21.5094Z" stroke="black" stroke-width="0.648148"/>
<path d="M26.3533 33.8217C26.3533 34.9743 26.3533 36.127 26.3533 37.2796C26.2131 37.1479 26.0729 37.0162 25.9328 36.8844C27.18 36.8844 28.4273 36.8844 29.6746 36.8844C32.2236 36.8844 34.7726 36.8844 37.3216 36.8844C39.3831 36.8844 41.4445 36.8844 43.5059 36.8844C43.7978 36.8844 44.0896 36.8844 44.3815 36.8844C44.2413 37.0162 44.1011 37.1479 43.961 37.2796C43.961 36.341 43.961 35.4024 43.961 34.4639C43.961 34.0637 43.9823 33.6401 43.9218 33.2523C43.7978 32.4569 43.4276 31.7149 42.8621 31.1217C42.2194 30.4475 41.3677 30.012 40.4237 29.8398C39.825 29.7306 39.1687 29.7772 38.5525 29.7772C38.6735 29.712 38.7946 29.6467 38.9156 29.5815C37.799 31.0136 36.6824 32.4458 35.5657 33.8779C35.5459 33.9034 35.5261 33.9288 35.5062 33.9542C35.3102 34.2056 34.9757 34.2074 34.7799 33.9542C33.6705 32.5194 32.561 31.0847 31.4515 29.6499C31.4339 29.6271 31.4162 29.6043 31.3986 29.5815C31.5197 29.6467 31.6407 29.712 31.7617 29.7772C31.375 29.7772 30.9882 29.7754 30.6014 29.7775C29.8454 29.7816 29.1055 29.9865 28.4549 30.3461C27.1535 31.0656 26.3621 32.4103 26.3533 33.8217C26.3501 34.3312 25.509 34.3315 25.5122 33.8217C25.5231 32.0561 26.5607 30.4114 28.2135 29.5664C28.975 29.177 29.8362 28.9869 30.7009 28.9869C30.9816 28.9869 31.2622 28.9869 31.5429 28.9869C31.7888 28.9869 31.9778 28.9923 32.142 29.2047C33.26 30.6504 34.3779 32.0961 35.4958 33.5419C35.4993 33.5463 35.5027 33.5508 35.5062 33.5553C35.2642 33.5553 35.022 33.5553 34.7799 33.5553C35.8966 32.1231 37.0132 30.691 38.1298 29.2588C38.2446 29.1116 38.3617 28.9868 38.5806 28.9868C38.8553 28.9868 39.13 28.9868 39.4047 28.9868C40.209 28.9868 40.9773 29.0923 41.7201 29.3946C43.446 30.0967 44.5968 31.6584 44.7814 33.4033C44.8509 34.0608 44.8021 34.7412 44.8021 35.4005C44.8021 36.0268 44.8021 36.6532 44.8021 37.2796C44.8021 37.495 44.6108 37.6748 44.3815 37.6748C43.1342 37.6748 41.8869 37.6748 40.6397 37.6748C38.0907 37.6748 35.5416 37.6748 32.9927 37.6748C30.9312 37.6748 28.8698 37.6748 26.8084 37.6748C26.5166 37.6748 26.2247 37.6748 25.9328 37.6748C25.7036 37.6748 25.5123 37.495 25.5123 37.2796C25.5123 36.127 25.5123 34.9743 25.5123 33.8217C25.5122 33.312 26.3533 33.312 26.3533 33.8217Z" fill="black"/>
<path d="M26.3533 33.8217C26.3533 34.9743 26.3533 36.127 26.3533 37.2796C26.2131 37.1479 26.0729 37.0162 25.9328 36.8844C27.18 36.8844 28.4273 36.8844 29.6746 36.8844C32.2236 36.8844 34.7726 36.8844 37.3216 36.8844C39.3831 36.8844 41.4445 36.8844 43.5059 36.8844C43.7978 36.8844 44.0896 36.8844 44.3815 36.8844C44.2413 37.0162 44.1011 37.1479 43.961 37.2796C43.961 36.341 43.961 35.4024 43.961 34.4639C43.961 34.0637 43.9823 33.6401 43.9218 33.2523C43.7978 32.4569 43.4276 31.7149 42.8621 31.1217C42.2194 30.4475 41.3677 30.012 40.4237 29.8398C39.825 29.7306 39.1687 29.7772 38.5525 29.7772C38.6735 29.712 38.7946 29.6467 38.9156 29.5815C37.799 31.0136 36.6824 32.4458 35.5657 33.8779C35.5459 33.9034 35.5261 33.9288 35.5062 33.9542C35.3102 34.2056 34.9757 34.2074 34.7799 33.9542C33.6705 32.5194 32.561 31.0847 31.4515 29.6499C31.4339 29.6271 31.4162 29.6043 31.3986 29.5815C31.5197 29.6467 31.6407 29.712 31.7617 29.7772C31.375 29.7772 30.9882 29.7754 30.6014 29.7775C29.8454 29.7816 29.1055 29.9865 28.4549 30.3461C27.1535 31.0656 26.3621 32.4103 26.3533 33.8217ZM26.3533 33.8217C26.3501 34.3312 25.509 34.3315 25.5122 33.8217C25.5231 32.0561 26.5607 30.4114 28.2135 29.5664C28.975 29.177 29.8362 28.9869 30.7009 28.9869C30.9816 28.9869 31.2622 28.9869 31.5429 28.9869C31.7888 28.9869 31.9778 28.9923 32.142 29.2047C33.26 30.6504 34.3779 32.0961 35.4958 33.5419C35.4993 33.5463 35.5027 33.5508 35.5062 33.5553C35.2642 33.5553 35.022 33.5553 34.7799 33.5553C35.8966 32.1231 37.0132 30.691 38.1298 29.2588C38.2446 29.1116 38.3617 28.9868 38.5806 28.9868C38.8553 28.9868 39.13 28.9868 39.4047 28.9868C40.209 28.9868 40.9773 29.0923 41.7201 29.3946C43.446 30.0967 44.5968 31.6584 44.7814 33.4033C44.8509 34.0608 44.8021 34.7412 44.8021 35.4005C44.8021 36.0268 44.8021 36.6532 44.8021 37.2796C44.8021 37.495 44.6108 37.6748 44.3815 37.6748C43.1342 37.6748 41.8869 37.6748 40.6397 37.6748C38.0907 37.6748 35.5416 37.6748 32.9927 37.6748C30.9312 37.6748 28.8698 37.6748 26.8084 37.6748C26.5166 37.6748 26.2247 37.6748 25.9328 37.6748C25.7036 37.6748 25.5123 37.495 25.5123 37.2796C25.5123 36.127 25.5123 34.9743 25.5123 33.8217C25.5122 33.312 26.3533 33.312 26.3533 33.8217Z" stroke="black" stroke-width="0.648148"/>
<rect x="13.6112" y="37.3579" width="44.0741" height="7.39165" stroke="black" stroke-width="1.2963"/>
<rect x="19.403" y="44.7221" width="32.4902" height="19.9409" stroke="black" stroke-width="1.2963"/>
<rect x="27.4427" y="49.2593" width="17.3759" height="8.68794" rx="2.59259" fill="url(#paint1_linear_1_1472)"/>
<rect x="27.2222" y="49.2593" width="17.3759" height="8.68794" rx="2.59259" fill="url(#paint2_linear_1_1472)"/>
<defs>
<linearGradient id="paint0_linear_1_1472" x1="32.2694" y1="14.9902" x2="54.4513" y2="14.9902" gradientUnits="userSpaceOnUse">
<stop stop-color="#16FF00"/>
<stop offset="1" stop-color="#4DFFC9"/>
</linearGradient>
<linearGradient id="paint1_linear_1_1472" x1="27.4427" y1="57.9472" x2="30.9031" y2="45.4165" gradientUnits="userSpaceOnUse">
<stop stop-color="#16FF00"/>
<stop offset="1" stop-color="#4DFFC9"/>
</linearGradient>
<linearGradient id="paint2_linear_1_1472" x1="27.2222" y1="57.9472" x2="30.6825" y2="45.4165" gradientUnits="userSpaceOnUse">
<stop stop-color="#16FF00"/>
<stop offset="1" stop-color="#4DFFC9"/>
</linearGradient>
</defs>
</svg>
