<svg width="70" height="70" viewBox="0 0 70 70" fill="none" xmlns="http://www.w3.org/2000/svg">
<path d="M42.6354 27.2224C42.6354 29.2536 41.8049 31.7495 40.4448 33.7359C39.0764 35.7344 37.2635 37.0927 35.3576 37.0927C33.4518 37.0927 31.6388 35.7344 30.2705 33.7359C28.9103 31.7495 28.0798 29.2536 28.0798 27.2224C28.0798 23.203 31.3382 19.9446 35.3576 19.9446C39.377 19.9446 42.6354 23.203 42.6354 27.2224Z" stroke="black"/>
<path d="M34.976 45.6934L35.3576 46.1445L35.7393 45.6934L40.7743 39.743C40.9643 39.5184 41.2435 39.3889 41.5377 39.3889H43.6169C46.6545 39.3889 49.1169 41.8513 49.1169 44.8889V54.7408C49.1169 55.0169 48.893 55.2408 48.6169 55.2408H22.0984C21.8222 55.2408 21.5984 55.0169 21.5984 54.7408V44.8889C21.5984 41.8513 24.0608 39.3889 27.0984 39.3889H29.1776C29.4718 39.3889 29.751 39.5184 29.941 39.743L34.976 45.6934Z" stroke="black"/>
<path d="M60.1577 29.5021C60.1577 31.089 59.5073 33.0484 58.4384 34.6095C57.3612 36.1828 55.9506 37.2269 54.4891 37.2269C53.0276 37.2269 51.617 36.1828 50.5399 34.6095C49.471 33.0484 48.8206 31.089 48.8206 29.5021C48.8206 26.3714 51.3585 23.8335 54.4891 23.8335C57.6198 23.8335 60.1577 26.3714 60.1577 29.5021Z" stroke="black"/>
<path d="M53.1926 43.8954L57.4922 39.2375C57.7762 38.9298 58.1758 38.7549 58.5944 38.7549H59.5298C62.8435 38.7549 65.5298 41.4412 65.5298 44.7549V50.8519C65.5298 51.4042 65.0821 51.8519 64.5298 51.8519H53.1926" stroke="black"/>
<path d="M10.5576 29.5021C10.5576 31.089 11.208 33.0484 12.2769 34.6095C13.3541 36.1828 14.7647 37.2269 16.2262 37.2269C17.6877 37.2269 19.0983 36.1828 20.1755 34.6095C21.2444 33.0484 21.8948 31.089 21.8948 29.5021C21.8948 26.3714 19.3569 23.8335 16.2262 23.8335C13.0955 23.8335 10.5576 26.3714 10.5576 29.5021Z" stroke="black"/>
<path d="M17.5227 43.8954L13.2231 39.2375C12.9391 38.9298 12.5395 38.7549 12.1209 38.7549H11.1855C7.87183 38.7549 5.18554 41.4412 5.18554 44.7549V50.8519C5.18554 51.4042 5.63325 51.8519 6.18554 51.8519H17.5227" stroke="black"/>
<circle cx="46.0186" cy="17.5001" r="9.72222" fill="url(#paint0_linear_1_1203)"/>
<path d="M41.4814 16.5897L45.2102 20.3185L51.2694 14.2593" stroke="black" stroke-width="2"/>
<defs>
<linearGradient id="paint0_linear_1_1203" x1="36.2964" y1="17.5001" x2="55.7228" y2="17.5001" gradientUnits="userSpaceOnUse">
<stop stop-color="#16FF00"/>
<stop offset="1" stop-color="#4DFFC9"/>
</linearGradient>
</defs>
</svg>
