<svg width="222" height="47" viewBox="0 0 222 47" fill="none" xmlns="http://www.w3.org/2000/svg">
<g clip-path="url(#clip0_92_1126)">
<path d="M87.7502 12.8703V0H90.3438L94.0994 8.25328H94.9073L98.6629 0H101.256V12.8703H99.6455V1.84V1.65551H99.6125L95.9607 9.74373H93.0082L89.3801 1.65551H89.3423V1.84V12.8703H87.7502Z" fill="white"/>
<path d="M104.907 11.6906C104.473 11.2466 104.131 10.7162 103.903 10.1319C103.674 9.54762 103.564 8.92162 103.579 8.29217C103.577 7.66291 103.695 7.03931 103.927 6.45697C104.159 5.87463 104.501 5.34496 104.932 4.8982C105.363 4.45144 105.876 4.09634 106.44 3.85318C107.005 3.61001 107.611 3.48355 108.223 3.481C108.836 3.47845 109.442 3.59986 110.009 3.83832C110.576 4.07677 111.091 4.42759 111.526 4.87074C111.961 5.31389 112.306 5.8407 112.543 6.42109C112.779 7.00147 112.902 7.62407 112.905 8.25333C112.882 9.1919 112.594 10.1034 112.077 10.8775C111.56 11.6515 110.836 12.2549 109.992 12.6146C109.148 12.9742 108.221 13.0747 107.322 12.9038C106.424 12.7329 105.593 12.298 104.931 11.6517L104.907 11.6906ZM105.923 5.8259C105.621 6.14804 105.386 6.5286 105.229 6.94537C105.073 7.36214 104.998 7.80678 105.011 8.25333C105 8.69966 105.075 9.14377 105.232 9.56028C105.388 9.97679 105.623 10.3575 105.923 10.6808C106.544 11.2912 107.371 11.6319 108.23 11.6319C109.09 11.6319 109.917 11.2912 110.538 10.6808C110.84 10.3589 111.076 9.97844 111.232 9.5616C111.389 9.14475 111.463 8.69996 111.45 8.25333C111.464 7.80698 111.391 7.36224 111.235 6.94534C111.079 6.52843 110.844 6.1478 110.543 5.8259C109.925 5.20758 109.097 4.86156 108.235 4.86156C107.373 4.86156 106.545 5.20758 105.927 5.8259H105.923Z" fill="white"/>
<path d="M115.604 11.6904C115.176 11.2355 114.843 10.6966 114.623 10.1059C114.403 9.51532 114.301 8.88515 114.324 8.25317C114.307 7.6269 114.412 7.00351 114.634 6.41982C114.855 5.83613 115.188 5.30397 115.613 4.85476C116.057 4.40096 116.587 4.04588 117.17 3.81161C117.753 3.57735 118.377 3.46891 119.003 3.49305C119.629 3.51718 120.243 3.67337 120.807 3.9519C121.372 4.23043 121.874 4.62534 122.284 5.11207C122.651 5.58588 122.925 6.12829 123.092 6.70932H121.674C121.534 6.36851 121.334 6.05738 121.084 5.79175C120.789 5.4835 120.434 5.24218 120.043 5.08331C119.651 4.92444 119.232 4.85155 118.812 4.86932C118.403 4.86045 117.997 4.94264 117.622 5.11024C117.246 5.27785 116.911 5.5269 116.638 5.8403C116.045 6.49406 115.723 7.35954 115.741 8.25317C115.716 9.15252 116.038 10.0255 116.638 10.6806C116.909 10.9885 117.24 11.2342 117.61 11.4015C117.979 11.5689 118.379 11.6541 118.783 11.6516C119.225 11.674 119.666 11.595 120.075 11.4203C120.484 11.2457 120.849 10.9797 121.145 10.6418C121.412 10.3501 121.619 10.0068 121.755 9.63195H123.172C122.927 10.6268 122.359 11.506 121.562 12.1239C120.765 12.7419 119.786 13.0617 118.788 13.0304C118.196 13.0473 117.606 12.9369 117.058 12.7062C116.51 12.4754 116.014 12.1294 115.604 11.6904Z" fill="white"/>
<path d="M124.958 12.8704V3.67529H126.375V7.35529H128.165L131.028 3.67529H132.748L129.441 7.99613L133.017 12.851H131.227L128.179 8.73892H126.389V12.8753L124.958 12.8704Z" fill="white"/>
<path d="M134.779 11.6907C134.345 11.2465 134.004 10.716 133.776 10.1317C133.549 9.54732 133.44 8.92144 133.456 8.29231C133.436 7.65182 133.542 7.01376 133.766 6.41604C133.991 5.81832 134.331 5.27312 134.765 4.81284C135.198 4.35256 135.718 3.98658 136.292 3.73664C136.866 3.4867 137.483 3.35791 138.107 3.35791C138.73 3.35791 139.348 3.4867 139.922 3.73664C140.496 3.98658 141.015 4.35256 141.449 4.81284C141.883 5.27312 142.222 5.81832 142.447 6.41604C142.672 7.01376 142.778 7.65182 142.758 8.29231C142.735 9.23183 142.448 10.1445 141.931 10.9195C141.414 11.6945 140.689 12.2986 139.844 12.6584C138.999 13.0182 138.071 13.1183 137.172 12.9466C136.272 12.7748 135.441 12.3385 134.779 11.6907ZM135.799 5.82603C135.497 6.14754 135.261 6.52798 135.104 6.94491C134.948 7.36183 134.874 7.80678 134.887 8.25347C134.874 8.70009 134.948 9.14488 135.105 9.56173C135.261 9.97858 135.498 10.3591 135.799 10.6809C136.421 11.2913 137.247 11.632 138.107 11.632C138.967 11.632 139.793 11.2913 140.415 10.6809C140.714 10.3577 140.949 9.97692 141.105 9.56041C141.262 9.1439 141.337 8.6998 141.326 8.25347C141.339 7.80691 141.265 7.36227 141.108 6.9455C140.951 6.52873 140.716 6.14817 140.415 5.82603C139.797 5.20772 138.969 4.86169 138.107 4.86169C137.245 4.86169 136.417 5.20772 135.799 5.82603Z" fill="white"/>
<path d="M144.723 12.8705V3.67534H149.107C149.819 3.63548 150.52 3.86523 151.077 4.32103C151.308 4.52537 151.492 4.77992 151.615 5.06624C151.739 5.35257 151.799 5.66351 151.791 5.97654C151.793 6.25983 151.752 6.54171 151.668 6.81158C151.602 7.02542 151.498 7.22468 151.361 7.39902C151.25 7.53336 151.121 7.65103 150.978 7.74857C150.873 7.82474 150.759 7.88674 150.638 7.93306C150.577 7.9561 150.514 7.97079 150.449 7.97675C150.522 7.98329 150.593 7.99961 150.662 8.0253C150.809 8.07298 150.951 8.13987 151.082 8.22435C151.259 8.33309 151.426 8.45996 151.578 8.60303C151.754 8.78522 151.891 9.0036 151.98 9.24387C152.096 9.54338 152.153 9.86336 152.15 10.1857C152.165 10.55 152.102 10.9133 151.963 11.2492C151.825 11.5851 151.616 11.8852 151.351 12.1277C150.726 12.6526 149.932 12.9161 149.126 12.8656L144.723 12.8705ZM146.141 7.44757H149.003C149.896 7.44757 150.345 7.04947 150.345 6.24842C150.345 5.44736 149.896 5.05412 149.003 5.05412H146.141V7.44757ZM146.141 11.4917H149.093C149.523 11.5212 149.949 11.3901 150.293 11.1227C150.43 10.9964 150.539 10.8403 150.61 10.6656C150.681 10.4909 150.713 10.302 150.704 10.1129C150.713 9.92299 150.681 9.73334 150.61 9.55779C150.539 9.38224 150.431 9.22523 150.293 9.09823C149.949 8.83251 149.523 8.70324 149.093 8.73411H146.141V11.4917Z" fill="white"/>
<path d="M154.866 11.6905C154.442 11.2407 154.11 10.7083 153.889 10.1247C153.668 9.54108 153.564 8.91798 153.581 8.29208C153.563 7.66612 153.668 7.04286 153.888 6.45915C154.109 5.87544 154.441 5.34312 154.866 4.89367C155.31 4.43974 155.84 4.08458 156.424 3.85027C157.007 3.61595 157.632 3.50749 158.258 3.53162C158.884 3.55575 159.498 3.71196 160.063 3.99055C160.628 4.26913 161.131 4.66412 161.541 5.15098C161.908 5.62389 162.181 6.16669 162.344 6.74823H160.927C160.788 6.40661 160.588 6.0952 160.336 5.83066C160.041 5.52193 159.687 5.28028 159.295 5.12137C158.904 4.96247 158.484 4.88985 158.064 4.90823C157.655 4.89936 157.249 4.98155 156.874 5.14915C156.499 5.31676 156.163 5.56581 155.891 5.87921C155.308 6.54301 154.998 7.41305 155.026 8.30664C155 9.20531 155.321 10.0782 155.919 10.7341C156.19 11.0418 156.521 11.2873 156.891 11.4546C157.26 11.6219 157.66 11.7072 158.064 11.7051C158.506 11.7278 158.947 11.649 159.356 11.4743C159.765 11.2996 160.13 11.0335 160.426 10.6952C160.696 10.4061 160.903 10.0621 161.035 9.68543H162.453C162.298 10.308 162.018 10.8902 161.631 11.3943C161.205 11.94 160.661 12.3767 160.043 12.6698C159.425 12.963 158.749 13.1047 158.069 13.0838C157.469 13.0967 156.874 12.9793 156.322 12.7391C155.77 12.499 155.274 12.1416 154.866 11.6905Z" fill="white"/>
<path d="M164.223 12.8704V3.67529H165.64V7.35529H167.426L170.288 3.67529H171.989L168.682 7.99613L172.263 12.851H170.473L167.44 8.73892H165.654V12.8753L164.223 12.8704Z" fill="white"/>
<path d="M173.609 12.8704V3.67529H175.027V10.5692V10.7537H175.06L179.874 3.67529H181.484V12.8704H180.067V5.9765V5.79202H180.029L175.22 12.8704H173.609Z" fill="white"/>
<path d="M183.988 12.8703V3.67514H185.406V10.5691V10.7535H185.439L190.248 3.67514H191.859V12.8703H190.441V5.97635V5.79186H190.404L185.594 12.8703H183.988ZM185.273 0H186.601C186.596 0.151132 186.624 0.301495 186.683 0.440092C186.741 0.578689 186.83 0.702016 186.941 0.801054C187.229 1.02075 187.584 1.12749 187.942 1.10206C188.307 1.13314 188.67 1.02608 188.963 0.801054C189.073 0.701553 189.16 0.578019 189.218 0.439447C189.277 0.300874 189.304 0.150749 189.298 0L190.64 0C190.646 0.314679 190.584 0.626802 190.457 0.913336C190.33 1.19987 190.142 1.4535 189.908 1.65551C189.35 2.1108 188.649 2.33895 187.938 2.29635C187.228 2.33774 186.529 2.10966 185.972 1.65551C185.744 1.45001 185.563 1.19488 185.442 0.908578C185.321 0.622273 185.263 0.311937 185.273 0V0Z" fill="white"/>
<path d="M87.7502 28.1873V18.9971H89.1675V25.891V26.0755H89.2053L94.0097 18.9971H95.6159V28.1873H94.1987V21.2934V21.1089H94.1656L89.3612 28.1873H87.7502Z" fill="white"/>
<path d="M98.1246 28.1873V18.9971H99.5419V22.7644H104.554V18.9971H105.971V28.1873H104.554V24.1432H99.556V28.1873H98.1246Z" fill="white"/>
<path d="M108.504 28.1873V18.9971H109.921V22.7644H114.928V18.9971H116.346V28.1873H114.928V24.1432H109.921V28.1873H108.504Z" fill="white"/>
<path d="M119.662 27.0125C119.228 26.5678 118.888 26.0372 118.66 25.453C118.433 24.8687 118.324 24.2431 118.339 23.6141C118.319 22.9736 118.425 22.3355 118.649 21.7378C118.874 21.1401 119.213 20.5949 119.647 20.1346C120.081 19.6743 120.601 19.3084 121.175 19.0584C121.749 18.8085 122.366 18.6797 122.99 18.6797C123.613 18.6797 124.23 18.8085 124.805 19.0584C125.379 19.3084 125.898 19.6743 126.332 20.1346C126.766 20.5949 127.105 21.1401 127.33 21.7378C127.555 22.3355 127.66 22.9736 127.641 23.6141C127.618 24.5536 127.331 25.4663 126.814 26.2413C126.296 27.0163 125.571 27.6204 124.727 27.9802C123.882 28.34 122.953 28.4401 122.054 28.2683C121.155 28.0966 120.324 27.6603 119.662 27.0125ZM120.682 21.1478C120.379 21.469 120.143 21.8494 119.986 22.2664C119.83 22.6834 119.756 23.1285 119.77 23.5752C119.756 24.022 119.83 24.467 119.987 24.884C120.143 25.3009 120.38 25.6813 120.682 26.0027C121.299 26.621 122.128 26.967 122.99 26.967C123.852 26.967 124.68 26.621 125.297 26.0027C125.6 25.6813 125.836 25.3009 125.993 24.884C126.149 24.467 126.223 24.022 126.209 23.5752C126.223 23.1285 126.15 22.6834 125.993 22.2664C125.836 21.8494 125.6 21.469 125.297 21.1478C124.68 20.5295 123.852 20.1835 122.99 20.1835C122.128 20.1835 121.299 20.5295 120.682 21.1478Z" fill="white"/>
<path d="M129.609 28.1875V18.9972H133.989C134.7 18.9546 135.401 19.1828 135.959 19.6381C136.19 19.842 136.374 20.0964 136.498 20.3829C136.621 20.6693 136.681 20.9805 136.672 21.2936C136.675 21.5769 136.633 21.8588 136.549 22.1286C136.438 22.5169 136.193 22.8501 135.859 23.0656C135.754 23.1418 135.64 23.2038 135.519 23.2501C135.459 23.2764 135.395 23.2928 135.33 23.2987C135.404 23.3055 135.477 23.3201 135.548 23.3423C135.696 23.3909 135.837 23.4595 135.968 23.5462C136.137 23.654 136.296 23.7793 136.44 23.9201C136.617 24.1038 136.754 24.3238 136.842 24.5658C136.958 24.8635 137.016 25.1819 137.012 25.5028C137.027 25.8665 136.963 26.229 136.826 26.5646C136.689 26.9002 136.481 27.2007 136.218 27.4447C135.591 27.9673 134.795 28.2289 133.989 28.1778L129.609 28.1875ZM131.027 22.7646H133.885C134.782 22.7646 135.226 22.3665 135.226 21.5703C135.226 20.7741 134.796 20.3906 133.899 20.3906H131.041L131.027 22.7646ZM131.027 26.8087H133.974C134.405 26.8404 134.832 26.7092 135.174 26.4398C135.305 26.3079 135.408 26.1506 135.479 25.9773C135.549 25.8039 135.586 25.6179 135.586 25.4299C135.586 25.242 135.549 25.0559 135.479 24.8826C135.408 24.7092 135.305 24.552 135.174 24.4201C134.832 24.1507 134.405 24.0194 133.974 24.0512H131.027V26.8087Z" fill="white"/>
<path d="M139.715 27.0025C138.879 26.0832 138.429 24.8621 138.463 23.6041C138.428 22.3461 138.878 21.1248 139.715 20.2057C140.098 19.768 140.567 19.4193 141.092 19.1832C141.617 18.9471 142.184 18.829 142.757 18.8366C143.413 18.817 144.063 18.969 144.647 19.2784C145.092 19.5092 145.479 19.8413 145.78 20.2494L145.941 20.5213V18.9969H147.358V28.1871H145.941V26.7015L145.78 26.9589C145.489 27.3587 145.11 27.6829 144.675 27.9056C144.079 28.223 143.414 28.3784 142.743 28.3571C142.174 28.3645 141.609 28.2476 141.087 28.0141C140.565 27.7806 140.097 27.4358 139.715 27.0025ZM140.778 21.1476C140.194 21.8106 139.883 22.6812 139.913 23.575C139.884 24.4688 140.194 25.3392 140.778 26.0024C141.059 26.3045 141.396 26.545 141.77 26.7093C142.144 26.8736 142.546 26.9583 142.953 26.9583C143.36 26.9583 143.762 26.8736 144.136 26.7093C144.51 26.545 144.848 26.3045 145.128 26.0024C145.712 25.3392 146.022 24.4688 145.993 23.575C146.023 22.6812 145.713 21.8106 145.128 21.1476C144.848 20.8455 144.51 20.605 144.136 20.4407C143.762 20.2765 143.36 20.1918 142.953 20.1918C142.546 20.1918 142.144 20.2765 141.77 20.4407C141.396 20.605 141.059 20.8455 140.778 21.1476Z" fill="white"/>
<path d="M149.91 28.1873V18.9971H151.327V26.8086H155.981V18.9971H157.398V26.8086H158.65V30.2992H157.233V28.1873H149.91Z" fill="white"/>
<path d="M160.195 28.1873V18.9971H161.612V25.891V26.0755H161.645L166.459 18.9971H168.07V28.1873H166.653V21.2934V21.1089H166.619L161.806 28.1873H160.195Z" fill="white"/>
<path d="M171.356 27.0125C170.923 26.5678 170.583 26.0372 170.355 25.453C170.128 24.8687 170.018 24.2431 170.034 23.6141C170.014 22.9736 170.119 22.3355 170.344 21.7378C170.569 21.1401 170.908 20.5949 171.342 20.1346C171.776 19.6743 172.295 19.3084 172.87 19.0584C173.444 18.8085 174.061 18.6797 174.685 18.6797C175.308 18.6797 175.925 18.8085 176.499 19.0584C177.074 19.3084 177.593 19.6743 178.027 20.1346C178.461 20.5949 178.8 21.1401 179.025 21.7378C179.25 22.3355 179.355 22.9736 179.335 23.6141C179.313 24.5536 179.026 25.4663 178.508 26.2413C177.991 27.0163 177.266 27.6204 176.421 27.9802C175.577 28.34 174.648 28.4401 173.749 28.2683C172.85 28.0966 172.019 27.6603 171.356 27.0125ZM172.377 21.1478C172.074 21.469 171.838 21.8494 171.681 22.2664C171.524 22.6834 171.451 23.1285 171.465 23.5752C171.451 24.022 171.525 24.467 171.681 24.884C171.838 25.3009 172.075 25.6813 172.377 26.0027C172.994 26.621 173.822 26.967 174.685 26.967C175.547 26.967 176.375 26.621 176.992 26.0027C177.295 25.6813 177.531 25.3009 177.688 24.884C177.844 24.467 177.918 24.022 177.904 23.5752C177.918 23.1285 177.845 22.6834 177.688 22.2664C177.531 21.8494 177.295 21.469 176.992 21.1478C176.375 20.5295 175.547 20.1835 174.685 20.1835C173.822 20.1835 172.994 20.5295 172.377 21.1478Z" fill="white"/>
<path d="M181.302 28.1873V18.9971H182.719V22.7644H187.731V18.9971H189.148V28.1873H187.731V24.1432H182.733V28.1873H181.302Z" fill="white"/>
<path d="M191.68 28.1873V18.9971H193.097V22.7644H198.104V18.9971H199.522V28.1873H198.104V24.1432H193.097V28.1873H191.68Z" fill="white"/>
<path d="M202.055 28.1873V18.9971H203.472V22.1188H205.617C206.512 22.0804 207.389 22.3927 208.069 22.9926C208.367 23.2628 208.606 23.5952 208.77 23.9677C208.934 24.3402 209.018 24.7443 209.018 25.153C209.018 25.5618 208.934 25.9659 208.77 26.3384C208.606 26.7109 208.367 27.0433 208.069 27.3135C207.389 27.9134 206.512 28.2257 205.617 28.1873H202.055ZM203.472 26.8086H205.617C206.139 26.843 206.655 26.6789 207.067 26.3473C207.231 26.1971 207.361 26.013 207.451 25.8072C207.541 25.6014 207.587 25.3785 207.587 25.153C207.587 24.9276 207.541 24.7047 207.451 24.4989C207.361 24.2931 207.231 24.109 207.067 23.9587C206.657 23.621 206.142 23.4483 205.617 23.4733H203.472V26.8086ZM210.18 28.1873V18.9971H211.598V28.1873H210.18Z" fill="white"/>
<path d="M214.129 28.1876V18.9974H215.546V25.8913V26.0758H215.579L220.393 18.9974H222.004V28.1876H220.587V21.2937V21.1092H220.549L215.735 28.1876H214.129ZM215.419 15.3174H216.76C216.755 15.4686 216.782 15.6192 216.841 15.7579C216.9 15.8966 216.989 16.0199 217.1 16.1184C217.398 16.3181 217.746 16.4245 218.102 16.4245C218.458 16.4245 218.806 16.3181 219.103 16.1184C219.215 16.0199 219.304 15.8966 219.363 15.7579C219.422 15.6192 219.449 15.4686 219.444 15.3174H220.785C220.797 15.6342 220.738 15.9497 220.614 16.2398C220.489 16.53 220.302 16.7873 220.067 16.9923C219.492 17.4121 218.805 17.6376 218.1 17.6376C217.394 17.6376 216.707 17.4121 216.132 16.9923C215.898 16.7866 215.712 16.529 215.588 16.2389C215.465 15.9489 215.407 15.6338 215.419 15.3174Z" fill="white"/>
<path d="M87.7502 43.5096V34.3145H89.1675V37.9944H90.9579L93.8207 34.3145H95.5167L92.2098 38.6353L95.7859 43.4902H94.0097L90.9674 39.3538H89.1769V43.4902L87.7502 43.5096Z" fill="white"/>
<path d="M96.0703 43.5096L98.5741 34.3145H102.353L104.857 43.5096H103.317L101.257 35.6932H99.6465L97.5915 43.5096H96.0703Z" fill="white"/>
<path d="M106.983 42.32C106.183 41.3788 105.742 40.1714 105.742 38.9216C105.742 37.6718 106.183 36.4644 106.983 35.5232C107.365 35.0856 107.834 34.737 108.358 34.5009C108.882 34.2647 109.449 34.1465 110.021 34.1541C110.677 34.137 111.326 34.2889 111.91 34.5959C112.352 34.8312 112.739 35.1625 113.044 35.5669L113.205 35.8436V34.3143H114.622V43.5095H113.205V42.053L113.044 42.3103C112.757 42.7014 112.387 43.0201 111.962 43.2425C111.366 43.5572 110.701 43.7109 110.03 43.6891C109.457 43.6981 108.888 43.5806 108.362 43.3444C107.836 43.1082 107.366 42.7589 106.983 42.32ZM108.027 36.4651C107.469 37.1514 107.163 38.0175 107.163 38.9119C107.163 39.8064 107.469 40.6724 108.027 41.3588C108.308 41.6595 108.646 41.8988 109.019 42.0622C109.393 42.2256 109.794 42.3099 110.2 42.3099C110.606 42.3099 111.008 42.2256 111.381 42.0622C111.755 41.8988 112.092 41.6595 112.373 41.3588C112.935 40.6741 113.243 39.8074 113.243 38.9119C113.243 38.0164 112.935 37.1497 112.373 36.4651C112.093 36.1631 111.756 35.9227 111.382 35.7585C111.009 35.5943 110.607 35.5096 110.2 35.5096C109.794 35.5096 109.392 35.5943 109.018 35.7585C108.645 35.9227 108.308 36.1631 108.027 36.4651Z" fill="white"/>
<path d="M117.927 42.3296C117.097 41.3956 116.637 40.1765 116.637 38.9117C116.637 37.647 117.097 36.4279 117.927 35.4939C118.371 35.0401 118.901 34.685 119.484 34.4508C120.067 34.2165 120.691 34.1081 121.316 34.1322C121.942 34.1563 122.556 34.3125 123.121 34.5911C123.685 34.8696 124.188 35.2645 124.597 35.7512C124.966 36.2239 125.241 36.7667 125.405 37.3485H123.988C123.846 36.9996 123.641 36.6816 123.383 36.4115C123.088 36.1032 122.733 35.8619 122.342 35.7031C121.951 35.5442 121.531 35.4713 121.111 35.4891C120.702 35.4802 120.296 35.5624 119.921 35.73C119.546 35.8976 119.21 36.1466 118.938 36.46C118.351 37.122 118.04 37.9929 118.068 38.8875C118.043 39.7868 118.366 40.6598 118.966 41.3149C119.237 41.6228 119.568 41.8685 119.938 42.0358C120.307 42.2032 120.707 42.2884 121.111 42.2859C121.553 42.3083 121.994 42.2293 122.403 42.0546C122.811 41.88 123.177 41.614 123.473 41.2761C123.732 40.9937 123.933 40.66 124.063 40.2954H125.481C125.326 40.9179 125.046 41.5002 124.659 42.0043C124.234 42.548 123.693 42.9834 123.077 43.2765C122.462 43.5696 121.789 43.7124 121.111 43.6938C120.517 43.7077 119.927 43.5934 119.378 43.3585C118.83 43.1235 118.335 42.773 117.927 42.3296Z" fill="white"/>
<path d="M126.134 35.6932V34.3145H133.829V35.6932H130.697V43.5096H129.28V35.6932H126.134Z" fill="white"/>
<path d="M135.922 42.3297C135.084 41.3999 134.618 40.1793 134.618 38.9119C134.618 37.6445 135.084 36.4239 135.922 35.4941C136.343 35.0482 136.85 34.6968 137.41 34.462C137.971 34.2272 138.572 34.1141 139.177 34.1299C139.781 34.1158 140.382 34.2282 140.943 34.4601C141.505 34.6921 142.014 35.0388 142.441 35.4791C142.867 35.9195 143.203 36.4444 143.426 37.022C143.649 37.5996 143.756 38.2178 143.74 38.8391V39.3731H136.054C136.127 40.1829 136.491 40.9358 137.074 41.485C137.645 42.0325 138.401 42.3288 139.181 42.3103C140.012 42.3313 140.821 42.0375 141.454 41.485C141.729 41.2567 141.96 40.9766 142.134 40.6597H143.551C143.22 41.5704 142.621 42.3523 141.836 42.8963C141.052 43.4402 140.122 43.7191 139.177 43.694C138.572 43.71 137.97 43.597 137.41 43.3622C136.85 43.1274 136.343 42.7759 135.922 42.3297ZM136.082 38.0866H142.224C142.125 37.3758 141.779 36.7258 141.251 36.2563C140.68 35.7503 139.944 35.4835 139.191 35.5086C138.434 35.4868 137.695 35.7531 137.117 36.2563C136.569 36.7187 136.202 37.3685 136.082 38.0866Z" fill="white"/>
<path d="M145.707 47.0003V34.3145H147.124V35.771L147.304 35.4942C147.593 35.1025 147.966 34.7851 148.395 34.5669C148.991 34.2483 149.656 34.0928 150.327 34.1154C150.9 34.1081 151.468 34.2264 151.992 34.4625C152.517 34.6986 152.986 35.047 153.37 35.4845C154.17 36.4257 154.611 37.6331 154.611 38.8829C154.611 40.1327 154.17 41.3401 153.37 42.2813C152.742 42.96 151.921 43.4154 151.025 43.5813C150.128 43.7472 149.204 43.615 148.386 43.2038C147.951 42.9897 147.579 42.6635 147.304 42.2571L147.124 41.9998V47.0003H145.707ZM148.008 36.4652C147.446 37.1499 147.138 38.0166 147.138 38.9121C147.138 39.8075 147.446 40.6742 148.008 41.3589C148.289 41.6596 148.626 41.8989 149 42.0623C149.373 42.2258 149.775 42.31 150.181 42.31C150.587 42.31 150.988 42.2258 151.362 42.0623C151.735 41.8989 152.073 41.6596 152.354 41.3589C152.915 40.6742 153.223 39.8075 153.223 38.9121C153.223 38.0166 152.915 37.1499 152.354 36.4652C152.073 36.1632 151.736 35.9229 151.363 35.7586C150.989 35.5944 150.587 35.5098 150.181 35.5098C149.775 35.5098 149.372 35.5944 148.999 35.7586C148.625 35.9229 148.288 36.1632 148.008 36.4652Z" fill="white"/>
<path d="M69.4394 0.0146484H52.8436V43.524H69.4394V0.0146484Z" fill="white"/>
<path d="M43.018 0.0146484H26.4222V39.611H43.018V0.0146484Z" fill="white"/>
<path d="M0 44.223V27.1873C7.01057 27.1783 13.731 24.3099 18.6851 19.2123C23.6393 14.1147 26.4219 7.20463 26.4219 0L43.0177 0C43.009 11.7234 38.4744 22.9643 30.4093 31.2553C22.3442 39.5464 11.4076 44.2102 0 44.223Z" fill="url(#paint0_linear_92_1126)"/>
<path d="M26.4222 44.223V27.1873C33.4336 27.1796 40.1553 24.3118 45.1104 19.214C50.0656 14.1162 52.8489 7.20547 52.8489 0L69.4447 0C69.4347 11.7238 64.8991 22.9647 56.8332 31.2556C48.7674 39.5465 37.8303 44.2102 26.4222 44.223Z" fill="url(#paint1_linear_92_1126)"/>
</g>
<defs>
<linearGradient id="paint0_linear_92_1126" x1="5.18707" y1="39.7225" x2="43.0959" y2="2.07876" gradientUnits="userSpaceOnUse">
<stop stop-color="#00EF12"/>
<stop offset="1" stop-color="#00FFE9"/>
</linearGradient>
<linearGradient id="paint1_linear_92_1126" x1="1726.24" y1="4854.8" x2="5179.35" y2="1426.59" gradientUnits="userSpaceOnUse">
<stop stop-color="#00EF12"/>
<stop offset="1" stop-color="#00FFE9"/>
</linearGradient>
<clipPath id="clip0_92_1126">
<rect width="222" height="47" fill="white"/>
</clipPath>
</defs>
</svg>
