<svg width="378" height="363" viewBox="0 0 378 363" fill="none" xmlns="http://www.w3.org/2000/svg">
<circle cx="190.691" cy="183.113" r="115.816" stroke="url(#paint0_linear_1_1398)" stroke-width="3"/>
<g filter="url(#filter0_d_1_1398)">
<rect x="251.727" y="108.25" width="90" height="90" rx="25.3826" fill="white"/>
<path d="M305.616 140.439V134.647C305.616 132.973 304.259 131.616 302.585 131.616H290.999C289.325 131.616 287.968 132.973 287.968 134.647V140.439" stroke="black"/>
<path d="M283.066 140.439V139.013C283.066 138.176 282.388 137.498 281.551 137.498H277.719C276.882 137.498 276.204 138.176 276.204 139.013V140.439" stroke="black"/>
<path d="M318.361 140.439V139.013C318.361 138.176 317.682 137.498 316.845 137.498H313.013C312.176 137.498 311.498 138.176 311.498 139.013V140.439" stroke="black"/>
<rect x="272.282" y="140.44" width="50" height="33.3333" rx="3.03086" stroke="black"/>
<rect x="309.104" y="145.182" width="24.6238" height="24.6238" rx="12.3119" transform="rotate(90 309.104 145.182)" fill="url(#paint1_linear_1_1398)"/>
<path d="M293.262 163.773C293.262 164.26 293.657 164.655 294.145 164.655C294.632 164.655 295.027 164.26 295.027 163.773V162.008H299.439C299.926 162.008 300.321 161.613 300.321 161.126C300.321 160.638 299.926 160.243 299.439 160.243H295.027V158.479H298.998C301.43 158.479 303.409 156.499 303.409 154.067C303.409 151.634 301.43 149.655 298.998 149.655H294.145C293.911 149.655 293.686 149.748 293.521 149.913C293.355 150.079 293.262 150.303 293.262 150.537V156.714H291.498C291.01 156.714 290.615 157.109 290.615 157.596C290.615 158.084 291.01 158.479 291.498 158.479H293.262V160.243H291.498C291.01 160.243 290.615 160.638 290.615 161.126C290.615 161.613 291.01 162.008 291.498 162.008H293.262V163.773ZM295.027 151.42H298.998C300.457 151.42 301.645 152.607 301.645 154.067C301.645 155.526 300.457 156.714 298.998 156.714H295.027V151.42Z" fill="black"/>
<path d="M278.165 139.949V173.773" stroke="black"/>
<path d="M316.4 139.949V173.773" stroke="black"/>
<rect x="209.211" y="232.25" width="90" height="90" rx="25.3826" fill="white"/>
<path d="M229.362 268.849L241.666 275.6L234.302 289.065L229.087 286.212" stroke="black" stroke-linecap="round"/>
<path d="M237.337 273.232L229.972 286.696" stroke="black"/>
<path d="M277.849 269.139L265.202 276.836L273.18 289.946L278.258 286.855" stroke="black" stroke-linecap="round"/>
<path d="M277.397 287.381L269.418 274.271" stroke="black"/>
<path d="M256.45 289.319L264.755 296.496C265.608 297.233 266.897 297.139 267.634 296.286V296.286C268.351 295.456 268.284 294.208 267.483 293.459L259.397 285.91L256.46 282.55" stroke="black" stroke-linecap="round" stroke-linejoin="round"/>
<path d="M252.527 279.132C249.98 278.246 243.088 278.544 241.199 276.901" stroke="black" stroke-linecap="round" stroke-linejoin="round"/>
<path d="M256.451 289.319L264.027 295.866C264.864 296.589 264.956 297.854 264.233 298.691V298.691C263.509 299.527 262.245 299.619 261.408 298.896L254.589 293.004" stroke="black" stroke-linecap="round"/>
<path d="M254.589 293.004L260.65 298.242C261.487 298.965 261.579 300.23 260.856 301.067V301.067C260.133 301.903 258.868 301.996 258.031 301.272L252.728 296.689" stroke="black" stroke-linecap="round"/>
<path d="M252.728 296.689L257.261 300.607C258.105 301.336 258.198 302.611 257.469 303.454V303.454C256.748 304.288 255.492 304.39 254.646 303.683L252.544 301.927" stroke="black" stroke-linecap="round"/>
<path d="M272.287 288.923L267.647 293.233" stroke="black"/>
<path d="M240.706 290.975L235.342 287.609" stroke="black"/>
<path d="M261.869 279.801L261.78 280.293L261.869 279.801ZM256.83 282.752C256.962 282.509 256.873 282.206 256.631 282.073C256.389 281.941 256.085 282.03 255.953 282.272L256.83 282.752ZM265.693 278.175C265.297 278.407 264.619 278.747 263.895 279C263.152 279.26 262.447 279.397 261.958 279.309L261.78 280.293C262.538 280.429 263.451 280.215 264.225 279.944C265.018 279.667 265.755 279.298 266.198 279.038L265.693 278.175ZM261.958 279.309C261.242 279.179 260.252 278.775 259.235 278.365C258.74 278.165 258.244 277.967 257.8 277.817C257.367 277.67 256.933 277.55 256.575 277.537L256.538 278.536C256.739 278.544 257.054 278.62 257.479 278.764C257.892 278.904 258.362 279.091 258.861 279.292C259.831 279.684 260.938 280.141 261.78 280.293L261.958 279.309ZM256.575 277.537C255.938 277.514 255.089 277.669 254.303 277.899C253.516 278.13 252.718 278.457 252.194 278.82L252.764 279.642C253.16 279.367 253.841 279.076 254.584 278.859C255.326 278.642 256.056 278.519 256.538 278.536L256.575 277.537ZM252.194 278.82C251.754 279.126 251.143 279.484 250.507 279.856C249.883 280.222 249.235 280.601 248.755 280.934L249.326 281.755C249.766 281.45 250.377 281.092 251.013 280.719C251.636 280.354 252.285 279.974 252.764 279.642L252.194 278.82ZM248.755 280.934C248.489 281.119 248.226 281.36 248.03 281.635C247.839 281.904 247.678 282.256 247.712 282.646C247.749 283.065 248 283.407 248.397 283.648C248.778 283.88 249.315 284.035 250.017 284.12L250.137 283.127C249.5 283.05 249.124 282.92 248.916 282.794C248.724 282.677 248.711 282.589 248.708 282.559C248.703 282.499 248.726 282.382 248.846 282.214C248.96 282.052 249.133 281.889 249.326 281.755L248.755 280.934ZM250.017 284.12C251.43 284.29 253.008 284.112 254.254 283.842C254.879 283.706 255.435 283.544 255.858 283.383C256.068 283.303 256.256 283.22 256.407 283.134C256.483 283.091 256.558 283.043 256.625 282.989C256.686 282.939 256.77 282.861 256.83 282.752L255.953 282.272C255.983 282.217 256.012 282.198 255.996 282.212C255.985 282.22 255.96 282.238 255.914 282.264C255.823 282.316 255.686 282.379 255.502 282.449C255.136 282.588 254.63 282.737 254.042 282.865C252.86 283.121 251.401 283.279 250.137 283.127L250.017 284.12Z" fill="black"/>
<ellipse cx="254.211" cy="260.583" rx="12.2222" ry="12.2222" fill="url(#paint2_linear_1_1398)"/>
<path d="M248.655 259.814L252.888 263.917L259.767 257.25" stroke="black" stroke-width="2"/>
<path fill-rule="evenodd" clip-rule="evenodd" d="M241.652 294.348L244.736 291.441C244.954 290.911 244.858 290.278 244.44 289.834C243.869 289.229 242.916 289.201 242.311 289.771L240.128 291.829C239.523 292.399 239.495 293.352 240.065 293.957C240.484 294.402 241.11 294.535 241.652 294.348ZM240.853 295.411C240.294 295.342 239.754 295.085 239.338 294.643C238.389 293.636 238.435 292.05 239.442 291.101L241.625 289.043C242.632 288.094 244.218 288.141 245.167 289.148C245.562 289.567 245.785 290.086 245.837 290.618C246.774 290.223 247.897 290.425 248.635 291.209C249.176 291.782 249.393 292.542 249.295 293.266C250.023 293.211 250.77 293.473 251.311 294.046C252.162 294.95 252.212 296.319 251.486 297.276C252.025 297.355 252.542 297.61 252.945 298.037C253.894 299.044 253.847 300.63 252.84 301.579L250.657 303.637C249.65 304.586 248.065 304.539 247.116 303.532C246.614 303 246.39 302.306 246.44 301.63C245.594 301.834 244.665 301.591 244.026 300.913C243.486 300.34 243.268 299.579 243.366 298.855C242.638 298.911 241.891 298.649 241.351 298.075C240.656 297.339 240.495 296.292 240.853 295.411ZM248.128 293.659C248.002 293.741 247.882 293.835 247.769 293.941L244.13 297.371C244.017 297.478 243.916 297.593 243.827 297.714C243.252 297.991 242.54 297.879 242.078 297.39C241.508 296.784 241.536 295.832 242.141 295.261L242.201 295.205C242.445 295.094 242.674 294.941 242.88 294.748L245.063 292.69C245.268 292.496 245.434 292.276 245.559 292.04L245.779 291.832C246.384 291.261 247.337 291.289 247.908 291.894C248.369 292.384 248.439 293.101 248.128 293.659ZM244.533 298.462C244.222 299.02 244.292 299.737 244.753 300.227C245.324 300.832 246.277 300.86 246.882 300.29L250.52 296.86C251.125 296.29 251.153 295.337 250.583 294.732C250.121 294.242 249.409 294.131 248.834 294.408C248.745 294.529 248.644 294.644 248.531 294.75L244.892 298.18C244.779 298.287 244.659 298.381 244.533 298.462ZM249.971 302.909L252.154 300.851C252.76 300.281 252.788 299.328 252.217 298.723C251.647 298.118 250.694 298.09 250.089 298.66L247.906 300.718C247.301 301.288 247.273 302.241 247.843 302.846C248.414 303.451 249.366 303.479 249.971 302.909Z" fill="black"/>
<rect x="36.457" y="108.25" width="90" height="90" rx="25.3826" fill="white"/>
<path fill-rule="evenodd" clip-rule="evenodd" d="M81.4569 177.695C90.6617 177.695 98.1236 170.233 98.1236 161.028C98.1236 158.928 97.7351 156.918 97.026 155.067H65.8879C65.1788 156.918 64.7903 158.928 64.7903 161.028C64.7903 170.233 72.2522 177.695 81.4569 177.695Z" fill="url(#paint3_linear_1_1398)"/>
<path d="M77.3674 142.735V131.461L71.378 130.757L69.9688 128.29L71.378 125.824H91.8124L93.9263 128.29L93.2217 130.757H90.0508L86.5276 131.461V142.735L93.9263 146.963L97.8018 150.134L99.9157 155.771H63.6271L66.4456 150.134L72.7873 144.849L77.3674 142.735Z" fill="white"/>
<circle cx="83.1237" cy="172.694" r="2.27778" stroke="black"/>
<path d="M94.2903 166.028C94.2903 167.899 92.773 169.417 90.9014 169.417C89.0298 169.417 87.5125 167.899 87.5125 166.028C87.5125 164.156 89.0298 162.639 90.9014 162.639C92.773 162.639 94.2903 164.156 94.2903 166.028Z" stroke="black"/>
<path d="M93.1792 154.361C93.1792 157.153 90.9157 159.417 88.1236 159.417C85.3315 159.417 83.0681 157.153 83.0681 154.361C83.0681 151.569 85.3315 149.305 88.1236 149.305C90.9157 149.305 93.1792 151.569 93.1792 154.361Z" stroke="black"/>
<rect x="70.3459" y="126.583" width="23.3333" height="4.44444" rx="2.22222" stroke="black"/>
<path d="M77.0127 131.028V142.665C68.7252 144.663 62.5682 152.126 62.5682 161.028C62.5682 171.46 71.0251 179.916 81.4571 179.916C91.8892 179.916 100.346 171.46 100.346 161.028C100.346 152.529 94.7334 145.341 87.0127 142.969V131.028" stroke="black"/>
<rect x="82.1719" y="232.25" width="90" height="90" rx="25.3826" fill="white"/>
<path d="M119.717 270.583H111.394C110.29 270.583 109.394 271.479 109.394 272.583V290.806C109.394 291.91 110.29 292.806 111.394 292.806H142.95C144.054 292.806 144.95 291.91 144.95 290.806V272.583C144.95 271.479 144.054 270.583 142.95 270.583H134.627" stroke="black" stroke-linecap="round"/>
<ellipse cx="127.172" cy="256.139" rx="3.33333" ry="3.33333" fill="url(#paint4_linear_1_1398)"/>
<ellipse cx="114.95" cy="262.806" rx="3.33333" ry="3.33333" fill="url(#paint5_linear_1_1398)"/>
<path d="M142.727 262.806C142.727 264.647 141.235 266.139 139.394 266.139C137.553 266.139 136.061 264.647 136.061 262.806C136.061 260.965 137.553 259.472 139.394 259.472C141.235 259.472 142.727 260.965 142.727 262.806Z" fill="url(#paint6_linear_1_1398)"/>
<path d="M127.172 259.472V285.584" stroke="black"/>
<path d="M118.283 262.806H122.727V280.583" stroke="black"/>
<path d="M136.061 262.806H131.616V280.583" stroke="black"/>
<path d="M127.172 292.806V297.25" stroke="black"/>
<path d="M118.283 297.806H136.616" stroke="black" stroke-linecap="round"/>
<rect x="145.691" y="32.75" width="90" height="90" rx="25.3826" fill="white"/>
<path d="M186.247 68.3053C182.198 67.4444 177.878 70.0088 175.969 72.8379C175.698 73.2401 175.958 73.7848 176.443 73.9065L180.692 74.9719" stroke="black"/>
<path d="M201.247 80.5275C202.951 84.2628 201.347 88.7857 199.015 91.2338C198.667 91.599 198.053 91.4385 197.85 90.9611L196.247 87.1941" stroke="black"/>
<path d="M172.633 102.295C172.727 102.343 172.831 102.367 172.935 102.364C173.038 102.36 173.138 102.33 173.223 102.276C174.626 101.484 176.101 100.818 177.634 100.284C178.223 100.095 178.826 99.9431 179.439 99.8286C180.96 99.5083 182.526 99.1725 183.357 98.1373C183.997 97.3435 184.394 96.3795 184.505 95.3508C184.617 94.322 184.438 93.2681 183.988 92.304C183.94 92.1997 183.863 92.1098 183.767 92.0452C183.67 91.9805 183.558 91.9439 183.444 91.9396C183.33 91.9353 183.219 91.9636 183.125 92.0211C183.03 92.0786 182.955 92.1627 182.91 92.2636C182.853 92.3987 182.778 92.5256 182.689 92.6413C182.405 92.9948 181.614 93.1486 180.922 93.2884C180.588 93.3481 180.258 93.4245 179.934 93.5174C179.577 93.6273 179.232 93.7642 178.899 93.9271C178.863 92.7515 178.99 91.1204 179.694 90.2431C179.787 90.1307 179.895 90.0307 180.015 89.9455C180.103 89.8794 180.169 89.7884 180.205 89.6834C180.241 89.5784 180.244 89.4639 180.215 89.3537C180.186 89.2434 180.126 89.1421 180.042 89.0619C179.958 88.9816 179.854 88.9259 179.742 88.9014C178.7 88.6656 177.628 88.7155 176.643 89.0454C175.658 89.3754 174.798 89.9727 174.159 90.7716C171.302 94.3316 172.248 101.519 172.29 101.822C172.303 101.921 172.342 102.017 172.402 102.099C172.462 102.182 172.541 102.249 172.633 102.295Z" fill="url(#paint7_linear_1_1398)"/>
<path d="M179.368 78.1246C179.079 77.8927 179 77.489 179.191 77.1717C181.218 73.8144 192.541 56.2845 207.374 57.3367C211.241 71.6142 196.913 86.4149 194.113 89.1381C193.845 89.3984 193.431 89.4096 193.14 89.1759L179.368 78.1246Z" stroke="black"/>
<path d="M180.632 83.1336L182.869 81.3459C182.964 81.2707 183.098 81.2708 183.192 81.3463L189.781 86.6341C189.875 86.7096 189.904 86.8402 189.851 86.9485L188.591 89.5204C188.518 89.6686 188.327 89.7113 188.198 89.6079L180.631 83.5359C180.502 83.4326 180.503 83.2366 180.632 83.1336Z" stroke="black"/>
<path d="M194.461 73.4406C195.282 74.0979 196.293 74.465 197.323 74.4793C198.353 74.4936 199.338 74.1542 200.109 73.519C200.88 72.8838 201.391 71.9921 201.554 70.9957C201.716 69.9994 201.521 68.96 201.001 68.0548C200.481 67.1495 199.669 66.4343 198.702 66.0311C197.736 65.6278 196.675 65.5615 195.701 65.8433C194.727 66.1251 193.899 66.7377 193.359 67.5767C192.819 68.4156 192.6 69.4291 192.74 70.4444C192.817 71.0214 193.009 71.5834 193.305 72.0977C193.6 72.6121 193.993 73.0685 194.461 73.4406Z" fill="url(#paint8_linear_1_1398)"/>
</g>
<path d="M217.089 161.929H202.5V199.644H217.089V161.929Z" fill="black"/>
<path d="M193.862 161.929H179.273V196.252H193.862V161.929Z" fill="black"/>
<path d="M156.047 200.25V185.483C162.21 185.475 168.118 182.989 172.473 178.57C176.828 174.151 179.274 168.162 179.274 161.917H193.863C193.855 172.079 189.869 181.822 182.779 189.009C175.689 196.196 166.075 200.239 156.047 200.25Z" fill="url(#paint9_linear_1_1398)"/>
<path d="M179.273 200.25V185.483C185.437 185.476 191.346 182.99 195.702 178.572C200.058 174.153 202.505 168.162 202.505 161.917H217.094C217.085 172.079 213.098 181.823 206.007 189.009C198.917 196.196 189.302 200.239 179.273 200.25Z" fill="url(#paint10_linear_1_1398)"/>
<defs>
<filter id="filter0_d_1_1398" x="0.457031" y="0.75" width="377.27" height="361.5" filterUnits="userSpaceOnUse" color-interpolation-filters="sRGB">
<feFlood flood-opacity="0" result="BackgroundImageFix"/>
<feColorMatrix in="SourceAlpha" type="matrix" values="0 0 0 0 0 0 0 0 0 0 0 0 0 0 0 0 0 0 127 0" result="hardAlpha"/>
<feOffset dy="4"/>
<feGaussianBlur stdDeviation="18"/>
<feColorMatrix type="matrix" values="0 0 0 0 0 0 0 0 0 0 0 0 0 0 0 0 0 0 0.08 0"/>
<feBlend mode="normal" in2="BackgroundImageFix" result="effect1_dropShadow_1_1398"/>
<feBlend mode="normal" in="SourceGraphic" in2="effect1_dropShadow_1_1398" result="shape"/>
</filter>
<linearGradient id="paint0_linear_1_1398" x1="73.375" y1="183.113" x2="307.79" y2="183.113" gradientUnits="userSpaceOnUse">
<stop stop-color="#16FF00"/>
<stop offset="1" stop-color="#4DFFC9"/>
<stop offset="1" stop-color="#4DFFC9"/>
</linearGradient>
<linearGradient id="paint1_linear_1_1398" x1="309.104" y1="169.806" x2="325.28" y2="140.516" gradientUnits="userSpaceOnUse">
<stop stop-color="#16FF00"/>
<stop offset="1" stop-color="#4DFFC9"/>
</linearGradient>
<linearGradient id="paint2_linear_1_1398" x1="241.989" y1="260.583" x2="266.41" y2="260.583" gradientUnits="userSpaceOnUse">
<stop stop-color="#16FF00"/>
<stop offset="1" stop-color="#4DFFC9"/>
<stop offset="1" stop-color="#4DFFC9"/>
</linearGradient>
<linearGradient id="paint3_linear_1_1398" x1="64.7903" y1="166.381" x2="98.0927" y2="166.381" gradientUnits="userSpaceOnUse">
<stop stop-color="#16FF00"/>
<stop offset="1" stop-color="#4DFFC9"/>
<stop offset="1" stop-color="#4DFFC9"/>
</linearGradient>
<linearGradient id="paint4_linear_1_1398" x1="123.839" y1="256.139" x2="130.499" y2="256.139" gradientUnits="userSpaceOnUse">
<stop stop-color="#16FF00"/>
<stop offset="1" stop-color="#4DFFC9"/>
<stop offset="1" stop-color="#4DFFC9"/>
</linearGradient>
<linearGradient id="paint5_linear_1_1398" x1="111.616" y1="262.806" x2="118.277" y2="262.806" gradientUnits="userSpaceOnUse">
<stop stop-color="#16FF00"/>
<stop offset="1" stop-color="#4DFFC9"/>
<stop offset="1" stop-color="#4DFFC9"/>
</linearGradient>
<linearGradient id="paint6_linear_1_1398" x1="136.061" y1="262.806" x2="142.721" y2="262.806" gradientUnits="userSpaceOnUse">
<stop stop-color="#16FF00"/>
<stop offset="1" stop-color="#4DFFC9"/>
<stop offset="1" stop-color="#4DFFC9"/>
</linearGradient>
<linearGradient id="paint7_linear_1_1398" x1="171.48" y1="95.8979" x2="184.491" y2="94.1202" gradientUnits="userSpaceOnUse">
<stop stop-color="#16FF00"/>
<stop offset="1" stop-color="#4DFFC9"/>
</linearGradient>
<linearGradient id="paint8_linear_1_1398" x1="193.608" y1="67.2303" x2="200.693" y2="72.9156" gradientUnits="userSpaceOnUse">
<stop stop-color="#16FF00"/>
<stop offset="1" stop-color="#4DFFC9"/>
</linearGradient>
<linearGradient id="paint9_linear_1_1398" x1="160.607" y1="196.349" x2="193.467" y2="163.257" gradientUnits="userSpaceOnUse">
<stop stop-color="#00EF12"/>
<stop offset="1" stop-color="#00FFE9"/>
</linearGradient>
<linearGradient id="paint10_linear_1_1398" x1="1673.55" y1="4370.15" x2="4666.78" y2="1356.47" gradientUnits="userSpaceOnUse">
<stop stop-color="#00EF12"/>
<stop offset="1" stop-color="#00FFE9"/>
</linearGradient>
</defs>
</svg>
