<svg width="39" height="39" viewBox="0 0 39 39" fill="none" xmlns="http://www.w3.org/2000/svg">
<g clip-path="url(#clip0_1_1803)">
<g filter="url(#filter0_f_1_1803)">
<circle cx="29.5" cy="44.5" r="41.5" fill="#2EF567"/>
</g>
<path d="M28.8833 26.5134C28.8567 26.445 28.8319 26.3882 28.8088 26.3427C28.4271 25.5232 27.6977 24.5173 26.621 23.3248L26.5982 23.2974L26.5868 23.2841L26.5753 23.2703H26.5638C26.0751 22.715 25.7657 22.3416 25.6361 22.1505C25.399 21.7863 25.3459 21.4177 25.4754 21.0442C25.567 20.7621 25.9109 20.1661 26.5064 19.2557C26.8196 18.7731 27.0676 18.3864 27.2508 18.0951C28.572 16.0012 29.1448 14.6632 28.9691 14.0805L28.9008 13.9444C28.855 13.8624 28.7366 13.7874 28.5459 13.719C28.3548 13.6508 28.1105 13.6395 27.8126 13.685L24.5138 13.7121C24.4604 13.6895 24.3841 13.6917 24.2846 13.719C24.1853 13.7464 24.1357 13.7601 24.1357 13.7601L24.0783 13.7943L24.0327 13.8354C23.9945 13.8625 23.9525 13.9103 23.9066 13.9786C23.861 14.0467 23.8229 14.1265 23.7924 14.2176C23.4332 15.319 23.0249 16.3432 22.5666 17.2898C22.284 17.8543 22.0245 18.3436 21.7876 18.7578C21.5509 19.1719 21.3523 19.477 21.1921 19.6725C21.0316 19.8683 20.8868 20.0251 20.7567 20.1436C20.6269 20.2621 20.5277 20.3122 20.4591 20.2938C20.3903 20.2755 20.3255 20.2573 20.2641 20.2392C20.1573 20.1572 20.0714 20.0457 20.0066 19.9046C19.9415 19.7635 19.8977 19.586 19.8748 19.372C19.852 19.158 19.8385 18.9738 19.8346 18.819C19.8311 18.6644 19.8327 18.4457 19.8405 18.1635C19.8484 17.8812 19.852 17.6902 19.852 17.59C19.852 17.244 19.8576 16.8685 19.869 16.4634C19.8805 16.0584 19.8899 15.7374 19.8977 15.5009C19.9055 15.2642 19.9091 15.0138 19.9091 14.7498C19.9091 14.4858 19.8956 14.2788 19.869 14.1285C19.8427 13.9784 19.8023 13.8327 19.749 13.6915C19.6955 13.5504 19.6171 13.4413 19.5142 13.3638C19.4111 13.2864 19.283 13.225 19.1305 13.1794C18.7257 13.0702 18.2103 13.0111 17.584 13.0019C16.1637 12.9838 15.2511 13.0931 14.8464 13.3298C14.686 13.4298 14.5409 13.5664 14.4112 13.7393C14.2737 13.9396 14.2545 14.049 14.3538 14.0669C14.812 14.1488 15.1364 14.3445 15.3274 14.654L15.3962 14.818C15.4497 14.9363 15.5031 15.1458 15.5566 15.4462C15.61 15.7465 15.6445 16.0788 15.6596 16.4427C15.6977 17.1074 15.6977 17.6763 15.6596 18.1496C15.6214 18.6231 15.5853 18.9917 15.5508 19.2557C15.5164 19.5197 15.4649 19.7336 15.3962 19.8974C15.3274 20.0613 15.2816 20.1615 15.2586 20.1978C15.2357 20.2341 15.2166 20.2571 15.2015 20.266C15.1022 20.3114 14.999 20.3345 14.8921 20.3345C14.7851 20.3345 14.6554 20.2707 14.5027 20.1432C14.35 20.0157 14.1916 19.8405 14.0274 19.6175C13.8632 19.3944 13.678 19.0826 13.4717 18.6821C13.2657 18.2816 13.0518 17.8082 12.8304 17.2621L12.6471 16.866C12.5326 16.6111 12.3761 16.2401 12.1776 15.7532C11.9789 15.2661 11.8033 14.7949 11.6506 14.3397C11.5896 14.1485 11.4979 14.003 11.3758 13.9029L11.3184 13.8618C11.2803 13.8254 11.2191 13.7868 11.1352 13.7457C11.0512 13.7046 10.9635 13.6752 10.8718 13.657L7.73323 13.6842C7.41251 13.6842 7.1949 13.7708 7.08032 13.9438L7.03446 14.0256C7.01155 14.0712 7 14.144 7 14.2442C7 14.3443 7.02291 14.4673 7.06877 14.6128C7.52693 15.8965 8.02518 17.1345 8.5635 18.327C9.10183 19.5195 9.56963 20.4801 9.96661 21.2079C10.3637 21.9363 10.7684 22.6237 11.1808 23.2698C11.5932 23.9162 11.8662 24.3304 11.9997 24.5124C12.1334 24.6947 12.2385 24.831 12.3148 24.922L12.6012 25.2497C12.7845 25.4682 13.0536 25.7299 13.4087 26.0348C13.7639 26.3399 14.1571 26.6402 14.5886 26.9363C15.0201 27.232 15.5221 27.4732 16.0949 27.6598C16.6676 27.8465 17.225 27.9215 17.7672 27.8853H19.0845C19.3517 27.8578 19.5541 27.7577 19.6917 27.5848L19.7372 27.5164C19.7679 27.4621 19.7966 27.3776 19.8231 27.264C19.8499 27.1503 19.8632 27.0249 19.8632 26.8886C19.8554 26.4972 19.8803 26.1445 19.9375 25.8304C19.9946 25.5165 20.0596 25.2798 20.1324 25.1204C20.2052 24.9611 20.2872 24.8268 20.3786 24.7178C20.4701 24.6086 20.5354 24.5425 20.5737 24.5197C20.6117 24.4968 20.6421 24.4813 20.665 24.4719C20.8482 24.3991 21.0639 24.4696 21.3123 24.6838C21.5606 24.8977 21.7934 25.1618 22.0111 25.4758C22.2288 25.79 22.4903 26.1425 22.7957 26.5339C23.1013 26.9254 23.3685 27.2164 23.5975 27.4079L23.8265 27.5717C23.9794 27.681 24.178 27.7812 24.4224 27.8722C24.6663 27.9632 24.8801 27.9859 25.0636 27.9405L27.9959 27.8859C28.2859 27.8859 28.5116 27.8287 28.6717 27.7151C28.8321 27.6013 28.9273 27.476 28.9581 27.3396C28.9887 27.2031 28.9904 27.0483 28.9639 26.8751C28.9367 26.7024 28.91 26.5817 28.8833 26.5134Z" fill="#383B4A"/>
</g>
<defs>
<filter id="filter0_f_1_1803" x="-62" y="-47" width="183" height="183" filterUnits="userSpaceOnUse" color-interpolation-filters="sRGB">
<feFlood flood-opacity="0" result="BackgroundImageFix"/>
<feBlend mode="normal" in="SourceGraphic" in2="BackgroundImageFix" result="shape"/>
<feGaussianBlur stdDeviation="25" result="effect1_foregroundBlur_1_1803"/>
</filter>
<clipPath id="clip0_1_1803">
<rect width="39" height="39" rx="19.5" fill="white"/>
</clipPath>
</defs>
</svg>
