<svg width="18" height="18" viewBox="0 0 18 18" fill="none" xmlns="http://www.w3.org/2000/svg">
<path d="M15.8557 13.1484C15.2974 12.5859 13.9453 11.765 13.2893 11.4342C12.435 11.0039 12.3647 10.9687 11.6932 11.4676C11.2453 11.8005 10.9475 12.0979 10.4233 11.9861C9.89915 11.8743 8.76008 11.244 7.7627 10.2498C6.76532 9.25554 6.0984 8.08343 5.98626 7.56101C5.87411 7.03859 6.17645 6.74433 6.50622 6.29538C6.97098 5.66257 6.93583 5.5571 6.53856 4.70281C6.22883 4.03835 5.38403 2.6989 4.81942 2.14343C4.21544 1.54683 4.21544 1.6523 3.82626 1.81402C3.50942 1.94733 3.20545 2.10937 2.91817 2.29812C2.35567 2.67183 2.04348 2.98226 1.82516 3.44878C1.60684 3.91531 1.50876 5.00902 2.63622 7.05722C3.76368 9.10542 4.55469 10.1527 6.19192 11.7854C7.82915 13.418 9.08809 14.2959 10.9285 15.3281C13.2052 16.6032 14.0785 16.3546 14.5465 16.1367C15.0144 15.9187 15.3262 15.6093 15.7006 15.0468C15.8899 14.76 16.0523 14.4564 16.1858 14.1398C16.3479 13.752 16.4533 13.752 15.8557 13.1484Z" stroke="white" stroke-miterlimit="10"/>
</svg>
